<mxfile host="Electron" modified="2023-07-03T18:14:19.632Z" agent="Mozilla/5.0 (Windows NT 10.0; Win64; x64) AppleWebKit/537.36 (KHTML, like Gecko) draw.io/21.5.1 Chrome/112.0.5615.204 Electron/24.6.0 Safari/537.36" etag="VE3UQQOcQ3GgICn3snfP" version="21.5.1" type="device">
  <diagram name="第 1 页" id="-xQ57dmR5hHNcu3G3Xy6">
    <mxGraphModel dx="1434" dy="884" grid="1" gridSize="10" guides="1" tooltips="1" connect="1" arrows="1" fold="1" page="1" pageScale="1" pageWidth="827" pageHeight="1169" math="0" shadow="0">
      <root>
        <mxCell id="0" />
        <mxCell id="1" parent="0" />
        <mxCell id="IkQhqxubPD25XcB5sHhS-1" value="webui" style="rounded=1;whiteSpace=wrap;html=1;" vertex="1" parent="1">
          <mxGeometry x="90" y="80" width="120" height="60" as="geometry" />
        </mxCell>
        <mxCell id="IkQhqxubPD25XcB5sHhS-2" value="配置文件" style="rounded=1;whiteSpace=wrap;html=1;" vertex="1" parent="1">
          <mxGeometry x="354" y="40" width="120" height="60" as="geometry" />
        </mxCell>
        <mxCell id="IkQhqxubPD25XcB5sHhS-3" value="" style="endArrow=classic;html=1;rounded=0;" edge="1" parent="1" source="IkQhqxubPD25XcB5sHhS-1" target="IkQhqxubPD25XcB5sHhS-2">
          <mxGeometry width="50" height="50" relative="1" as="geometry">
            <mxPoint x="560" y="280" as="sourcePoint" />
            <mxPoint x="610" y="230" as="targetPoint" />
          </mxGeometry>
        </mxCell>
        <mxCell id="IkQhqxubPD25XcB5sHhS-4" value="Adapter" style="rounded=1;whiteSpace=wrap;html=1;" vertex="1" parent="1">
          <mxGeometry x="590" y="80" width="120" height="60" as="geometry" />
        </mxCell>
        <mxCell id="IkQhqxubPD25XcB5sHhS-5" value="" style="endArrow=classic;html=1;rounded=0;" edge="1" parent="1" source="IkQhqxubPD25XcB5sHhS-4" target="IkQhqxubPD25XcB5sHhS-2">
          <mxGeometry width="50" height="50" relative="1" as="geometry">
            <mxPoint x="560" y="280" as="sourcePoint" />
            <mxPoint x="610" y="230" as="targetPoint" />
          </mxGeometry>
        </mxCell>
      </root>
    </mxGraphModel>
  </diagram>
</mxfile>
